<mxfile host="Electron" agent="Mozilla/5.0 (Windows NT 10.0; Win64; x64) AppleWebKit/537.36 (KHTML, like Gecko) draw.io/28.1.2 Chrome/138.0.7204.243 Electron/37.4.0 Safari/537.36" version="28.1.2" pages="3">
  <diagram name="PÃ¡gina-1" id="abnCgl3_wsnd688QPN7Z">
    <mxGraphModel dx="606" dy="979" grid="1" gridSize="10" guides="1" tooltips="1" connect="1" arrows="1" fold="1" page="1" pageScale="1" pageWidth="827" pageHeight="1169" math="0" shadow="0">
      <root>
        <mxCell id="0" />
        <mxCell id="1" parent="0" />
        <mxCell id="wyOlrQlxPW3Om6Tk5R-l-1" value="ns:Bicycle" style="rounded=0;whiteSpace=wrap;html=1;snapToPoint=1;points=[[0.1,0],[0.2,0],[0.3,0],[0.4,0],[0.5,0],[0.6,0],[0.7,0],[0.8,0],[0.9,0],[0,0.1],[0,0.3],[0,0.5],[0,0.7],[0,0.9],[0.1,1],[0.2,1],[0.3,1],[0.4,1],[0.5,1],[0.6,1],[0.7,1],[0.8,1],[0.9,1],[1,0.1],[1,0.3],[1,0.5],[1,0.7],[1,0.9]];fillColor=#60a917;fontColor=#ffffff;strokeColor=#2D7600;" vertex="1" parent="1">
          <mxGeometry x="140" y="220.00000000000023" width="120" height="30" as="geometry" />
        </mxCell>
        <mxCell id="wyOlrQlxPW3Om6Tk5R-l-2" value="ns:Station" style="rounded=0;whiteSpace=wrap;html=1;snapToPoint=1;points=[[0.1,0],[0.2,0],[0.3,0],[0.4,0],[0.5,0],[0.6,0],[0.7,0],[0.8,0],[0.9,0],[0,0.1],[0,0.3],[0,0.5],[0,0.7],[0,0.9],[0.1,1],[0.2,1],[0.3,1],[0.4,1],[0.5,1],[0.6,1],[0.7,1],[0.8,1],[0.9,1],[1,0.1],[1,0.3],[1,0.5],[1,0.7],[1,0.9]];fillColor=#60a917;fontColor=#ffffff;strokeColor=#2D7600;" vertex="1" parent="1">
          <mxGeometry x="140" y="280.0000000000002" width="120" height="30" as="geometry" />
        </mxCell>
        <mxCell id="wyOlrQlxPW3Om6Tk5R-l-3" value="ns:Travel" style="rounded=0;whiteSpace=wrap;html=1;snapToPoint=1;points=[[0.1,0],[0.2,0],[0.3,0],[0.4,0],[0.5,0],[0.6,0],[0.7,0],[0.8,0],[0.9,0],[0,0.1],[0,0.3],[0,0.5],[0,0.7],[0,0.9],[0.1,1],[0.2,1],[0.3,1],[0.4,1],[0.5,1],[0.6,1],[0.7,1],[0.8,1],[0.9,1],[1,0.1],[1,0.3],[1,0.5],[1,0.7],[1,0.9]];fillColor=#60a917;fontColor=#ffffff;strokeColor=#2D7600;" vertex="1" parent="1">
          <mxGeometry x="40" y="540.0000000000002" width="120" height="30" as="geometry" />
        </mxCell>
        <mxCell id="wyOlrQlxPW3Om6Tk5R-l-4" value="ns:Address" style="rounded=0;whiteSpace=wrap;html=1;snapToPoint=1;points=[[0.1,0],[0.2,0],[0.3,0],[0.4,0],[0.5,0],[0.6,0],[0.7,0],[0.8,0],[0.9,0],[0,0.1],[0,0.3],[0,0.5],[0,0.7],[0,0.9],[0.1,1],[0.2,1],[0.3,1],[0.4,1],[0.5,1],[0.6,1],[0.7,1],[0.8,1],[0.9,1],[1,0.1],[1,0.3],[1,0.5],[1,0.7],[1,0.9]];fillColor=#60a917;fontColor=#ffffff;strokeColor=#2D7600;" vertex="1" parent="1">
          <mxGeometry x="370" y="280.0000000000002" width="120" height="30" as="geometry" />
        </mxCell>
        <mxCell id="wyOlrQlxPW3Om6Tk5R-l-10" value="xsd:string" style="rounded=0;whiteSpace=wrap;html=1;snapToPoint=1;points=[[0.1,0],[0.2,0],[0.3,0],[0.4,0],[0.5,0],[0.6,0],[0.7,0],[0.8,0],[0.9,0],[0,0.1],[0,0.3],[0,0.5],[0,0.7],[0,0.9],[0.1,1],[0.2,1],[0.3,1],[0.4,1],[0.5,1],[0.6,1],[0.7,1],[0.8,1],[0.9,1],[1,0.1],[1,0.3],[1,0.5],[1,0.7],[1,0.9]];fillColor=#6a00ff;fontColor=#ffffff;strokeColor=#3700CC;" vertex="1" parent="1">
          <mxGeometry x="320" y="360.0000000000002" width="120" height="30" as="geometry" />
        </mxCell>
        <mxCell id="wyOlrQlxPW3Om6Tk5R-l-13" value="hasAddress" style="endArrow=open;endSize=12;dashed=1;html=1;rounded=0;exitX=1;exitY=0.5;exitDx=0;exitDy=0;entryX=0;entryY=0.5;entryDx=0;entryDy=0;" edge="1" parent="1" source="wyOlrQlxPW3Om6Tk5R-l-2" target="wyOlrQlxPW3Om6Tk5R-l-4">
          <mxGeometry width="160" relative="1" as="geometry">
            <mxPoint x="280" y="294.5" as="sourcePoint" />
            <mxPoint x="430" y="295" as="targetPoint" />
          </mxGeometry>
        </mxCell>
        <mxCell id="wyOlrQlxPW3Om6Tk5R-l-14" value="hasName" style="endArrow=open;endSize=12;dashed=1;html=1;rounded=0;exitX=0.5;exitY=1;exitDx=0;exitDy=0;entryX=0;entryY=0.5;entryDx=0;entryDy=0;edgeStyle=orthogonalEdgeStyle;" edge="1" parent="1" source="wyOlrQlxPW3Om6Tk5R-l-2" target="wyOlrQlxPW3Om6Tk5R-l-10">
          <mxGeometry x="0.2432" width="160" relative="1" as="geometry">
            <mxPoint x="200" y="370" as="sourcePoint" />
            <mxPoint x="410" y="370" as="targetPoint" />
            <mxPoint as="offset" />
          </mxGeometry>
        </mxCell>
        <mxCell id="wyOlrQlxPW3Om6Tk5R-l-16" value="xsd:int" style="rounded=0;whiteSpace=wrap;html=1;snapToPoint=1;points=[[0.1,0],[0.2,0],[0.3,0],[0.4,0],[0.5,0],[0.6,0],[0.7,0],[0.8,0],[0.9,0],[0,0.1],[0,0.3],[0,0.5],[0,0.7],[0,0.9],[0.1,1],[0.2,1],[0.3,1],[0.4,1],[0.5,1],[0.6,1],[0.7,1],[0.8,1],[0.9,1],[1,0.1],[1,0.3],[1,0.5],[1,0.7],[1,0.9]];fillColor=#6a00ff;fontColor=#ffffff;strokeColor=#3700CC;" vertex="1" parent="1">
          <mxGeometry x="320" y="400.0000000000002" width="120" height="30" as="geometry" />
        </mxCell>
        <mxCell id="wyOlrQlxPW3Om6Tk5R-l-18" value="hasLatitude" style="endArrow=open;endSize=12;dashed=1;html=1;rounded=0;entryX=0;entryY=0.5;entryDx=0;entryDy=0;edgeStyle=orthogonalEdgeStyle;" edge="1" parent="1" target="wyOlrQlxPW3Om6Tk5R-l-16">
          <mxGeometry x="0.451" width="160" relative="1" as="geometry">
            <mxPoint x="200" y="310" as="sourcePoint" />
            <mxPoint x="330" y="375.0000000000002" as="targetPoint" />
            <Array as="points">
              <mxPoint x="200" y="415" />
            </Array>
            <mxPoint as="offset" />
          </mxGeometry>
        </mxCell>
        <mxCell id="wyOlrQlxPW3Om6Tk5R-l-21" value="xsd:int" style="rounded=0;whiteSpace=wrap;html=1;snapToPoint=1;points=[[0.1,0],[0.2,0],[0.3,0],[0.4,0],[0.5,0],[0.6,0],[0.7,0],[0.8,0],[0.9,0],[0,0.1],[0,0.3],[0,0.5],[0,0.7],[0,0.9],[0.1,1],[0.2,1],[0.3,1],[0.4,1],[0.5,1],[0.6,1],[0.7,1],[0.8,1],[0.9,1],[1,0.1],[1,0.3],[1,0.5],[1,0.7],[1,0.9]];fillColor=#6a00ff;fontColor=#ffffff;strokeColor=#3700CC;" vertex="1" parent="1">
          <mxGeometry x="320" y="480.0000000000002" width="120" height="30" as="geometry" />
        </mxCell>
        <mxCell id="wyOlrQlxPW3Om6Tk5R-l-22" value="hasMaxCapacity" style="endArrow=open;endSize=12;dashed=1;html=1;rounded=0;exitX=0.5;exitY=1;exitDx=0;exitDy=0;entryX=0;entryY=0.5;entryDx=0;entryDy=0;edgeStyle=orthogonalEdgeStyle;" edge="1" parent="1" source="wyOlrQlxPW3Om6Tk5R-l-2" target="wyOlrQlxPW3Om6Tk5R-l-21">
          <mxGeometry x="0.5556" width="160" relative="1" as="geometry">
            <mxPoint x="260" y="480" as="sourcePoint" />
            <mxPoint x="420" y="480" as="targetPoint" />
            <mxPoint as="offset" />
          </mxGeometry>
        </mxCell>
        <mxCell id="wyOlrQlxPW3Om6Tk5R-l-24" value="xsd:Float" style="rounded=0;whiteSpace=wrap;html=1;snapToPoint=1;points=[[0.1,0],[0.2,0],[0.3,0],[0.4,0],[0.5,0],[0.6,0],[0.7,0],[0.8,0],[0.9,0],[0,0.1],[0,0.3],[0,0.5],[0,0.7],[0,0.9],[0.1,1],[0.2,1],[0.3,1],[0.4,1],[0.5,1],[0.6,1],[0.7,1],[0.8,1],[0.9,1],[1,0.1],[1,0.3],[1,0.5],[1,0.7],[1,0.9]];fillColor=#6a00ff;fontColor=#ffffff;strokeColor=#3700CC;" vertex="1" parent="1">
          <mxGeometry x="270" y="540.0000000000002" width="120" height="30" as="geometry" />
        </mxCell>
        <mxCell id="wyOlrQlxPW3Om6Tk5R-l-25" value="hasDuration" style="endArrow=open;endSize=12;dashed=1;html=1;rounded=0;exitX=1;exitY=0.5;exitDx=0;exitDy=0;entryX=0;entryY=0.5;entryDx=0;entryDy=0;" edge="1" parent="1" source="wyOlrQlxPW3Om6Tk5R-l-3" target="wyOlrQlxPW3Om6Tk5R-l-24">
          <mxGeometry width="160" relative="1" as="geometry">
            <mxPoint x="210" y="590" as="sourcePoint" />
            <mxPoint x="370" y="590" as="targetPoint" />
          </mxGeometry>
        </mxCell>
        <mxCell id="wyOlrQlxPW3Om6Tk5R-l-28" value="xsd:Date" style="rounded=0;whiteSpace=wrap;html=1;snapToPoint=1;points=[[0.1,0],[0.2,0],[0.3,0],[0.4,0],[0.5,0],[0.6,0],[0.7,0],[0.8,0],[0.9,0],[0,0.1],[0,0.3],[0,0.5],[0,0.7],[0,0.9],[0.1,1],[0.2,1],[0.3,1],[0.4,1],[0.5,1],[0.6,1],[0.7,1],[0.8,1],[0.9,1],[1,0.1],[1,0.3],[1,0.5],[1,0.7],[1,0.9]];fillColor=#6a00ff;fontColor=#ffffff;strokeColor=#3700CC;" vertex="1" parent="1">
          <mxGeometry x="270" y="610.0000000000002" width="120" height="30" as="geometry" />
        </mxCell>
        <mxCell id="wyOlrQlxPW3Om6Tk5R-l-29" value="xsd:Date" style="rounded=0;whiteSpace=wrap;html=1;snapToPoint=1;points=[[0.1,0],[0.2,0],[0.3,0],[0.4,0],[0.5,0],[0.6,0],[0.7,0],[0.8,0],[0.9,0],[0,0.1],[0,0.3],[0,0.5],[0,0.7],[0,0.9],[0.1,1],[0.2,1],[0.3,1],[0.4,1],[0.5,1],[0.6,1],[0.7,1],[0.8,1],[0.9,1],[1,0.1],[1,0.3],[1,0.5],[1,0.7],[1,0.9]];fillColor=#6a00ff;fontColor=#ffffff;strokeColor=#3700CC;" vertex="1" parent="1">
          <mxGeometry x="270" y="680.0000000000002" width="120" height="30" as="geometry" />
        </mxCell>
        <mxCell id="wyOlrQlxPW3Om6Tk5R-l-30" value="hasUnlockDate" style="endArrow=open;endSize=12;dashed=1;html=1;rounded=0;exitX=0.5;exitY=1;exitDx=0;exitDy=0;entryX=0;entryY=0.5;entryDx=0;entryDy=0;edgeStyle=orthogonalEdgeStyle;" edge="1" parent="1" source="wyOlrQlxPW3Om6Tk5R-l-3" target="wyOlrQlxPW3Om6Tk5R-l-28">
          <mxGeometry x="0.4894" width="160" relative="1" as="geometry">
            <mxPoint x="90" y="670" as="sourcePoint" />
            <mxPoint x="250" y="670" as="targetPoint" />
            <mxPoint as="offset" />
          </mxGeometry>
        </mxCell>
        <mxCell id="wyOlrQlxPW3Om6Tk5R-l-31" value="" style="endArrow=open;endSize=12;dashed=1;html=1;rounded=0;exitX=0.5;exitY=1;exitDx=0;exitDy=0;entryX=0;entryY=0.5;entryDx=0;entryDy=0;edgeStyle=orthogonalEdgeStyle;" edge="1" parent="1" source="wyOlrQlxPW3Om6Tk5R-l-3" target="wyOlrQlxPW3Om6Tk5R-l-29">
          <mxGeometry x="-0.0032" width="160" relative="1" as="geometry">
            <mxPoint x="100" y="700" as="sourcePoint" />
            <mxPoint x="260" y="700" as="targetPoint" />
            <mxPoint as="offset" />
          </mxGeometry>
        </mxCell>
        <mxCell id="wyOlrQlxPW3Om6Tk5R-l-32" value="hasLockDate" style="edgeLabel;html=1;align=center;verticalAlign=middle;resizable=0;points=[];" vertex="1" connectable="0" parent="wyOlrQlxPW3Om6Tk5R-l-31">
          <mxGeometry x="0.4095" y="1" relative="1" as="geometry">
            <mxPoint x="33" y="1" as="offset" />
          </mxGeometry>
        </mxCell>
        <mxCell id="wyOlrQlxPW3Om6Tk5R-l-33" value="hasLockStation" style="endArrow=open;endSize=12;dashed=1;html=1;rounded=0;entryX=0.2;entryY=1;entryDx=0;entryDy=0;exitX=0.5;exitY=0;exitDx=0;exitDy=0;edgeStyle=orthogonalEdgeStyle;" edge="1" parent="1" source="wyOlrQlxPW3Om6Tk5R-l-3" target="wyOlrQlxPW3Om6Tk5R-l-2">
          <mxGeometry x="0.0884" width="160" relative="1" as="geometry">
            <mxPoint x="260" y="410" as="sourcePoint" />
            <mxPoint x="420" y="410" as="targetPoint" />
            <Array as="points">
              <mxPoint x="100" y="350" />
              <mxPoint x="164" y="350" />
            </Array>
            <mxPoint as="offset" />
          </mxGeometry>
        </mxCell>
        <mxCell id="wyOlrQlxPW3Om6Tk5R-l-34" value="hasUnlockStation" style="endArrow=open;endSize=12;dashed=1;html=1;rounded=0;entryX=0;entryY=0.5;entryDx=0;entryDy=0;exitX=0.5;exitY=0;exitDx=0;exitDy=0;edgeStyle=orthogonalEdgeStyle;" edge="1" parent="1" source="wyOlrQlxPW3Om6Tk5R-l-3" target="wyOlrQlxPW3Om6Tk5R-l-2">
          <mxGeometry x="0.4737" width="160" relative="1" as="geometry">
            <mxPoint x="280" y="360" as="sourcePoint" />
            <mxPoint x="440" y="360" as="targetPoint" />
            <mxPoint as="offset" />
          </mxGeometry>
        </mxCell>
        <mxCell id="wyOlrQlxPW3Om6Tk5R-l-37" value="hasBike" style="endArrow=open;endSize=12;dashed=1;html=1;rounded=0;entryX=0;entryY=0.5;entryDx=0;entryDy=0;exitX=0;exitY=0.5;exitDx=0;exitDy=0;edgeStyle=orthogonalEdgeStyle;" edge="1" parent="1" source="wyOlrQlxPW3Om6Tk5R-l-3" target="wyOlrQlxPW3Om6Tk5R-l-1">
          <mxGeometry width="160" relative="1" as="geometry">
            <mxPoint x="-50" y="460" as="sourcePoint" />
            <mxPoint x="110" y="460" as="targetPoint" />
          </mxGeometry>
        </mxCell>
        <mxCell id="wyOlrQlxPW3Om6Tk5R-l-38" value="" style="endArrow=open;endSize=12;dashed=1;html=1;rounded=0;exitX=1;exitY=0.5;exitDx=0;exitDy=0;" edge="1" parent="1" source="wyOlrQlxPW3Om6Tk5R-l-4" target="wyOlrQlxPW3Om6Tk5R-l-19">
          <mxGeometry width="160" relative="1" as="geometry">
            <mxPoint x="490" y="295" as="sourcePoint" />
            <mxPoint x="600" y="295" as="targetPoint" />
          </mxGeometry>
        </mxCell>
        <mxCell id="wyOlrQlxPW3Om6Tk5R-l-46" value="hasName" style="edgeLabel;html=1;align=center;verticalAlign=middle;resizable=0;points=[];" vertex="1" connectable="0" parent="wyOlrQlxPW3Om6Tk5R-l-38">
          <mxGeometry x="-0.3516" y="2" relative="1" as="geometry">
            <mxPoint x="17" y="2" as="offset" />
          </mxGeometry>
        </mxCell>
        <mxCell id="wyOlrQlxPW3Om6Tk5R-l-19" value="xsd:String" style="rounded=0;whiteSpace=wrap;html=1;snapToPoint=1;points=[[0.1,0],[0.2,0],[0.3,0],[0.4,0],[0.5,0],[0.6,0],[0.7,0],[0.8,0],[0.9,0],[0,0.1],[0,0.3],[0,0.5],[0,0.7],[0,0.9],[0.1,1],[0.2,1],[0.3,1],[0.4,1],[0.5,1],[0.6,1],[0.7,1],[0.8,1],[0.9,1],[1,0.1],[1,0.3],[1,0.5],[1,0.7],[1,0.9]];fillColor=#6a00ff;fontColor=#ffffff;strokeColor=#3700CC;" vertex="1" parent="1">
          <mxGeometry x="570" y="280.0000000000002" width="120" height="30" as="geometry" />
        </mxCell>
        <mxCell id="wyOlrQlxPW3Om6Tk5R-l-40" value="&lt;font style=&quot;color: rgb(255, 255, 255);&quot;&gt;xsd:&lt;span style=&quot;background-color: transparent;&quot;&gt;int&lt;/span&gt;&lt;/font&gt;" style="rounded=0;whiteSpace=wrap;html=1;snapToPoint=1;points=[[0.1,0],[0.2,0],[0.3,0],[0.4,0],[0.5,0],[0.6,0],[0.7,0],[0.8,0],[0.9,0],[0,0.1],[0,0.3],[0,0.5],[0,0.7],[0,0.9],[0.1,1],[0.2,1],[0.3,1],[0.4,1],[0.5,1],[0.6,1],[0.7,1],[0.8,1],[0.9,1],[1,0.1],[1,0.3],[1,0.5],[1,0.7],[1,0.9]];fillColor=#6a00ff;fontColor=#ffffff;strokeColor=#3700CC;" vertex="1" parent="1">
          <mxGeometry x="320" y="440" width="120" height="30" as="geometry" />
        </mxCell>
        <mxCell id="wyOlrQlxPW3Om6Tk5R-l-43" value="" style="endArrow=open;endSize=12;dashed=1;html=1;rounded=0;entryX=0;entryY=0.5;entryDx=0;entryDy=0;edgeStyle=orthogonalEdgeStyle;" edge="1" parent="1" target="wyOlrQlxPW3Om6Tk5R-l-40">
          <mxGeometry width="160" relative="1" as="geometry">
            <mxPoint x="200" y="310" as="sourcePoint" />
            <mxPoint x="390" y="440" as="targetPoint" />
            <Array as="points">
              <mxPoint x="200" y="455" />
            </Array>
          </mxGeometry>
        </mxCell>
        <mxCell id="wyOlrQlxPW3Om6Tk5R-l-44" value="hasLongitude" style="edgeLabel;html=1;align=center;verticalAlign=middle;resizable=0;points=[];" vertex="1" connectable="0" parent="wyOlrQlxPW3Om6Tk5R-l-43">
          <mxGeometry x="0.4792" y="1" relative="1" as="geometry">
            <mxPoint y="1" as="offset" />
          </mxGeometry>
        </mxCell>
      </root>
    </mxGraphModel>
  </diagram>
  <diagram id="K53P6or0zbe-95468fDg" name="PÃ¡gina-2">
    <mxGraphModel dx="464" dy="832" grid="1" gridSize="10" guides="1" tooltips="1" connect="1" arrows="1" fold="1" page="1" pageScale="1" pageWidth="827" pageHeight="1169" math="0" shadow="0">
      <root>
        <mxCell id="0" />
        <mxCell id="1" parent="0" />
        <mxCell id="S1STEGljWyavl_Dq_JU--1" value="ns:Bicycle" style="rounded=0;whiteSpace=wrap;html=1;snapToPoint=1;points=[[0.1,0],[0.2,0],[0.3,0],[0.4,0],[0.5,0],[0.6,0],[0.7,0],[0.8,0],[0.9,0],[0,0.1],[0,0.3],[0,0.5],[0,0.7],[0,0.9],[0.1,1],[0.2,1],[0.3,1],[0.4,1],[0.5,1],[0.6,1],[0.7,1],[0.8,1],[0.9,1],[1,0.1],[1,0.3],[1,0.5],[1,0.7],[1,0.9]];fillColor=#6d8764;fontColor=#ffffff;strokeColor=#3A5431;" parent="1" vertex="1">
          <mxGeometry x="165" y="890" width="120" height="30" as="geometry" />
        </mxCell>
        <mxCell id="kfgJQjMfWQv8yMBpokug-1" value="ns:duration:Float&lt;div&gt;ns:unLockDate:Date&lt;/div&gt;&lt;div&gt;ns:lockDate:Date&lt;/div&gt;" style="rounded=0;whiteSpace=wrap;html=1;snapToPoint=1;points=[[0.1,0],[0.2,0],[0.3,0],[0.4,0],[0.5,0],[0.6,0],[0.7,0],[0.8,0],[0.9,0],[0,0.1],[0,0.3],[0,0.5],[0,0.7],[0,0.9],[0.1,1],[0.2,1],[0.3,1],[0.4,1],[0.5,1],[0.6,1],[0.7,1],[0.8,1],[0.9,1],[1,0.1],[1,0.3],[1,0.5],[1,0.7],[1,0.9]];" parent="1" vertex="1">
          <mxGeometry x="140" y="780" width="170" height="50" as="geometry" />
        </mxCell>
        <mxCell id="kfgJQjMfWQv8yMBpokug-2" value="ns:Travel" style="rounded=0;whiteSpace=wrap;html=1;snapToPoint=1;points=[[0.1,0],[0.2,0],[0.3,0],[0.4,0],[0.5,0],[0.6,0],[0.7,0],[0.8,0],[0.9,0],[0,0.1],[0,0.3],[0,0.5],[0,0.7],[0,0.9],[0.1,1],[0.2,1],[0.3,1],[0.4,1],[0.5,1],[0.6,1],[0.7,1],[0.8,1],[0.9,1],[1,0.1],[1,0.3],[1,0.5],[1,0.7],[1,0.9]];fillColor=#6d8764;fontColor=#ffffff;strokeColor=#3A5431;" parent="1" vertex="1">
          <mxGeometry x="140" y="750" width="170" height="30" as="geometry" />
        </mxCell>
        <mxCell id="kfgJQjMfWQv8yMBpokug-3" value="ns:station_name:String&lt;div&gt;ns:coord_x:Float&lt;/div&gt;&lt;div&gt;ns:coord_y:Float&lt;/div&gt;&lt;div&gt;ns:capacity:int&lt;/div&gt;" style="rounded=0;whiteSpace=wrap;html=1;snapToPoint=1;points=[[0.1,0],[0.2,0],[0.3,0],[0.4,0],[0.5,0],[0.6,0],[0.7,0],[0.8,0],[0.9,0],[0,0.1],[0,0.3],[0,0.5],[0,0.7],[0,0.9],[0.1,1],[0.2,1],[0.3,1],[0.4,1],[0.5,1],[0.6,1],[0.7,1],[0.8,1],[0.9,1],[1,0.1],[1,0.3],[1,0.5],[1,0.7],[1,0.9]];" parent="1" vertex="1">
          <mxGeometry x="140" y="650" width="170" height="70" as="geometry" />
        </mxCell>
        <mxCell id="kfgJQjMfWQv8yMBpokug-4" value="ns:Station" style="rounded=0;whiteSpace=wrap;html=1;snapToPoint=1;points=[[0.1,0],[0.2,0],[0.3,0],[0.4,0],[0.5,0],[0.6,0],[0.7,0],[0.8,0],[0.9,0],[0,0.1],[0,0.3],[0,0.5],[0,0.7],[0,0.9],[0.1,1],[0.2,1],[0.3,1],[0.4,1],[0.5,1],[0.6,1],[0.7,1],[0.8,1],[0.9,1],[1,0.1],[1,0.3],[1,0.5],[1,0.7],[1,0.9]];fillColor=#6d8764;fontColor=#ffffff;strokeColor=#3A5431;" parent="1" vertex="1">
          <mxGeometry x="140" y="620" width="170" height="30" as="geometry" />
        </mxCell>
        <mxCell id="kfgJQjMfWQv8yMBpokug-6" value="hasUnLockStaton" style="html=1;verticalAlign=bottom;endArrow=block;rounded=0;exitX=0;exitY=0.5;exitDx=0;exitDy=0;edgeStyle=orthogonalEdgeStyle;entryX=0;entryY=0.414;entryDx=0;entryDy=0;entryPerimeter=0;" parent="1" source="kfgJQjMfWQv8yMBpokug-1" target="kfgJQjMfWQv8yMBpokug-3" edge="1">
          <mxGeometry x="0.013" y="10" width="80" relative="1" as="geometry">
            <mxPoint x="150" y="790" as="sourcePoint" />
            <mxPoint x="100" y="540" as="targetPoint" />
            <Array as="points">
              <mxPoint x="100" y="805" />
              <mxPoint x="100" y="680" />
              <mxPoint x="136" y="680" />
              <mxPoint x="136" y="679" />
            </Array>
            <mxPoint as="offset" />
          </mxGeometry>
        </mxCell>
        <mxCell id="kfgJQjMfWQv8yMBpokug-8" value="hasLockStation" style="endArrow=block;endFill=1;html=1;edgeStyle=orthogonalEdgeStyle;align=left;verticalAlign=top;rounded=0;exitX=1;exitY=0.5;exitDx=0;exitDy=0;" parent="1" source="kfgJQjMfWQv8yMBpokug-1" edge="1">
          <mxGeometry x="0.067" y="20" relative="1" as="geometry">
            <mxPoint x="380" y="800" as="sourcePoint" />
            <mxPoint x="315" y="680" as="targetPoint" />
            <Array as="points">
              <mxPoint x="310" y="800" />
              <mxPoint x="360" y="800" />
              <mxPoint x="360" y="680" />
              <mxPoint x="315" y="680" />
            </Array>
            <mxPoint as="offset" />
          </mxGeometry>
        </mxCell>
        <mxCell id="oIEvLQQ4m3xnsHpZ4kHf-3" value="" style="endArrow=classic;startArrow=none;endFill=1;startFill=0;html=1;rounded=0;exitX=0.5;exitY=1;exitDx=0;exitDy=0;entryX=0.5;entryY=0;entryDx=0;entryDy=0;" parent="1" source="kfgJQjMfWQv8yMBpokug-1" target="S1STEGljWyavl_Dq_JU--1" edge="1">
          <mxGeometry width="160" relative="1" as="geometry">
            <mxPoint x="240" y="1010" as="sourcePoint" />
            <mxPoint x="400" y="1010" as="targetPoint" />
          </mxGeometry>
        </mxCell>
        <mxCell id="oIEvLQQ4m3xnsHpZ4kHf-4" value="hasBike" style="edgeLabel;html=1;align=center;verticalAlign=middle;resizable=0;points=[];" parent="oIEvLQQ4m3xnsHpZ4kHf-3" vertex="1" connectable="0">
          <mxGeometry x="-0.2545" y="4" relative="1" as="geometry">
            <mxPoint as="offset" />
          </mxGeometry>
        </mxCell>
        <mxCell id="mtpoQctE9_DmXHEzhTU1-1" value="ns:address_name:String" style="rounded=0;whiteSpace=wrap;html=1;snapToPoint=1;points=[[0.1,0],[0.2,0],[0.3,0],[0.4,0],[0.5,0],[0.6,0],[0.7,0],[0.8,0],[0.9,0],[0,0.1],[0,0.3],[0,0.5],[0,0.7],[0,0.9],[0.1,1],[0.2,1],[0.3,1],[0.4,1],[0.5,1],[0.6,1],[0.7,1],[0.8,1],[0.9,1],[1,0.1],[1,0.3],[1,0.5],[1,0.7],[1,0.9]];" parent="1" vertex="1">
          <mxGeometry x="135.5" y="520" width="179" height="50" as="geometry" />
        </mxCell>
        <mxCell id="mtpoQctE9_DmXHEzhTU1-2" value="Address" style="rounded=0;whiteSpace=wrap;html=1;snapToPoint=1;points=[[0.1,0],[0.2,0],[0.3,0],[0.4,0],[0.5,0],[0.6,0],[0.7,0],[0.8,0],[0.9,0],[0,0.1],[0,0.3],[0,0.5],[0,0.7],[0,0.9],[0.1,1],[0.2,1],[0.3,1],[0.4,1],[0.5,1],[0.6,1],[0.7,1],[0.8,1],[0.9,1],[1,0.1],[1,0.3],[1,0.5],[1,0.7],[1,0.9]];fillColor=#6d8764;fontColor=#ffffff;strokeColor=#3A5431;" parent="1" vertex="1">
          <mxGeometry x="135.5" y="489.9999999999999" width="179" height="30" as="geometry" />
        </mxCell>
        <mxCell id="mtpoQctE9_DmXHEzhTU1-5" value="" style="endArrow=block;endFill=1;html=1;align=left;verticalAlign=top;rounded=0;exitX=0.5;exitY=0;exitDx=0;exitDy=0;entryX=0.5;entryY=1;entryDx=0;entryDy=0;edgeStyle=orthogonalEdgeStyle;" parent="1" source="kfgJQjMfWQv8yMBpokug-4" target="mtpoQctE9_DmXHEzhTU1-1" edge="1">
          <mxGeometry x="-0.6" y="-85" relative="1" as="geometry">
            <mxPoint x="410" y="560" as="sourcePoint" />
            <mxPoint x="570" y="560" as="targetPoint" />
            <mxPoint as="offset" />
          </mxGeometry>
        </mxCell>
        <mxCell id="mtpoQctE9_DmXHEzhTU1-7" value="hasAddress" style="edgeLabel;html=1;align=center;verticalAlign=middle;resizable=0;points=[];" parent="mtpoQctE9_DmXHEzhTU1-5" vertex="1" connectable="0">
          <mxGeometry x="0.08" y="-2" relative="1" as="geometry">
            <mxPoint as="offset" />
          </mxGeometry>
        </mxCell>
      </root>
    </mxGraphModel>
  </diagram>
  <diagram id="bq1ooqSnkKnvuECfLEyu" name="PÃ¡gina-3">
    <mxGraphModel dx="1600" dy="1387" grid="1" gridSize="10" guides="1" tooltips="1" connect="1" arrows="1" fold="1" page="1" pageScale="1" pageWidth="827" pageHeight="1169" math="0" shadow="0">
      <root>
        <mxCell id="0" />
        <mxCell id="1" parent="0" />
        <mxCell id="4ycTnDVCzbSpGlADL72A-1" value="Station:4 - MalasaÃ±a" style="rounded=0;whiteSpace=wrap;html=1;snapToPoint=1;points=[[0.1,0],[0.2,0],[0.3,0],[0.4,0],[0.5,0],[0.6,0],[0.7,0],[0.8,0],[0.9,0],[0,0.1],[0,0.3],[0,0.5],[0,0.7],[0,0.9],[0.1,1],[0.2,1],[0.3,1],[0.4,1],[0.5,1],[0.6,1],[0.7,1],[0.8,1],[0.9,1],[1,0.1],[1,0.3],[1,0.5],[1,0.7],[1,0.9]];fillColor=#647687;fontColor=#ffffff;strokeColor=#314354;" parent="1" vertex="1">
          <mxGeometry x="110" y="340.0000000000002" width="120" height="30" as="geometry" />
        </mxCell>
        <mxCell id="NKS0Meh3iKFqGpTJUPLY-1" value="Address:Calle_Manuela_MalasaÃ±a_nÂº_3" style="rounded=0;whiteSpace=wrap;html=1;snapToPoint=1;points=[[0.1,0],[0.2,0],[0.3,0],[0.4,0],[0.5,0],[0.6,0],[0.7,0],[0.8,0],[0.9,0],[0,0.1],[0,0.3],[0,0.5],[0,0.7],[0,0.9],[0.1,1],[0.2,1],[0.3,1],[0.4,1],[0.5,1],[0.6,1],[0.7,1],[0.8,1],[0.9,1],[1,0.1],[1,0.3],[1,0.5],[1,0.7],[1,0.9]];fillColor=#e3c800;fontColor=#000000;strokeColor=#B09500;" parent="1" vertex="1">
          <mxGeometry x="400" y="340" width="220" height="30" as="geometry" />
        </mxCell>
        <mxCell id="NKS0Meh3iKFqGpTJUPLY-2" value="" style="endArrow=classic;html=1;exitX=1;exitY=0.5;exitDx=0;exitDy=0;entryX=0;entryY=0.5;entryDx=0;entryDy=0;endSize=8;arcSize=0;rounded=0;" parent="1" source="4ycTnDVCzbSpGlADL72A-1" target="NKS0Meh3iKFqGpTJUPLY-1" edge="1">
          <mxGeometry width="50" height="50" relative="1" as="geometry">
            <mxPoint x="300" y="300" as="sourcePoint" />
            <mxPoint x="497" y="300" as="targetPoint" />
          </mxGeometry>
        </mxCell>
        <mxCell id="NKS0Meh3iKFqGpTJUPLY-4" value="ontology:hasAddress" style="edgeLabel;html=1;align=center;verticalAlign=middle;resizable=0;points=[];" parent="NKS0Meh3iKFqGpTJUPLY-2" vertex="1" connectable="0">
          <mxGeometry x="-0.1368" relative="1" as="geometry">
            <mxPoint as="offset" />
          </mxGeometry>
        </mxCell>
        <mxCell id="7oIZ4ZT-HJo-2TDTiQin-1" value="2" style="rounded=0;whiteSpace=wrap;html=1;snapToPoint=1;points=[[0.1,0],[0.2,0],[0.3,0],[0.4,0],[0.5,0],[0.6,0],[0.7,0],[0.8,0],[0.9,0],[0,0.1],[0,0.3],[0,0.5],[0,0.7],[0,0.9],[0.1,1],[0.2,1],[0.3,1],[0.4,1],[0.5,1],[0.6,1],[0.7,1],[0.8,1],[0.9,1],[1,0.1],[1,0.3],[1,0.5],[1,0.7],[1,0.9]];" parent="1" vertex="1">
          <mxGeometry x="80" y="440.0000000000002" width="120" height="30" as="geometry" />
        </mxCell>
        <mxCell id="7oIZ4ZT-HJo-2TDTiQin-2" value="-3,7025" style="rounded=0;whiteSpace=wrap;html=1;snapToPoint=1;points=[[0.1,0],[0.2,0],[0.3,0],[0.4,0],[0.5,0],[0.6,0],[0.7,0],[0.8,0],[0.9,0],[0,0.1],[0,0.3],[0,0.5],[0,0.7],[0,0.9],[0.1,1],[0.2,1],[0.3,1],[0.4,1],[0.5,1],[0.6,1],[0.7,1],[0.8,1],[0.9,1],[1,0.1],[1,0.3],[1,0.5],[1,0.7],[1,0.9]];" parent="1" vertex="1">
          <mxGeometry x="20" y="250.00000000000023" width="120" height="30" as="geometry" />
        </mxCell>
        <mxCell id="7oIZ4ZT-HJo-2TDTiQin-3" value="40,428626" style="rounded=0;whiteSpace=wrap;html=1;snapToPoint=1;points=[[0.1,0],[0.2,0],[0.3,0],[0.4,0],[0.5,0],[0.6,0],[0.7,0],[0.8,0],[0.9,0],[0,0.1],[0,0.3],[0,0.5],[0,0.7],[0,0.9],[0.1,1],[0.2,1],[0.3,1],[0.4,1],[0.5,1],[0.6,1],[0.7,1],[0.8,1],[0.9,1],[1,0.1],[1,0.3],[1,0.5],[1,0.7],[1,0.9]];" parent="1" vertex="1">
          <mxGeometry x="-70" y="340.0000000000002" width="120" height="30" as="geometry" />
        </mxCell>
        <mxCell id="7oIZ4ZT-HJo-2TDTiQin-5" value="" style="endArrow=classic;html=1;exitX=0.5;exitY=0;exitDx=0;exitDy=0;entryX=0.6;entryY=1;entryDx=0;entryDy=0;endSize=8;arcSize=0;rounded=0;" parent="1" source="4ycTnDVCzbSpGlADL72A-1" target="7oIZ4ZT-HJo-2TDTiQin-2" edge="1">
          <mxGeometry width="50" height="50" relative="1" as="geometry">
            <mxPoint x="120" y="430" as="sourcePoint" />
            <mxPoint x="310" y="430" as="targetPoint" />
          </mxGeometry>
        </mxCell>
        <mxCell id="7oIZ4ZT-HJo-2TDTiQin-6" value="ontology:hasCoordX" style="edgeLabel;html=1;align=center;verticalAlign=middle;resizable=0;points=[];" parent="7oIZ4ZT-HJo-2TDTiQin-5" vertex="1" connectable="0">
          <mxGeometry x="-0.1368" relative="1" as="geometry">
            <mxPoint as="offset" />
          </mxGeometry>
        </mxCell>
        <mxCell id="7oIZ4ZT-HJo-2TDTiQin-7" value="" style="endArrow=classic;html=1;endSize=8;arcSize=0;rounded=0;entryX=1;entryY=0.5;entryDx=0;entryDy=0;exitX=0;exitY=0.5;exitDx=0;exitDy=0;" parent="1" source="4ycTnDVCzbSpGlADL72A-1" target="7oIZ4ZT-HJo-2TDTiQin-3" edge="1">
          <mxGeometry width="50" height="50" relative="1" as="geometry">
            <mxPoint x="160" y="370" as="sourcePoint" />
            <mxPoint x="240" y="450" as="targetPoint" />
          </mxGeometry>
        </mxCell>
        <mxCell id="7oIZ4ZT-HJo-2TDTiQin-8" value="ontology:hasCoordY" style="edgeLabel;html=1;align=center;verticalAlign=middle;resizable=0;points=[];" parent="7oIZ4ZT-HJo-2TDTiQin-7" vertex="1" connectable="0">
          <mxGeometry x="-0.1368" relative="1" as="geometry">
            <mxPoint x="3" y="25" as="offset" />
          </mxGeometry>
        </mxCell>
        <mxCell id="7oIZ4ZT-HJo-2TDTiQin-9" value="" style="endArrow=classic;html=1;exitX=0.5;exitY=1;exitDx=0;exitDy=0;endSize=8;arcSize=0;rounded=0;entryX=0.5;entryY=0;entryDx=0;entryDy=0;" parent="1" source="4ycTnDVCzbSpGlADL72A-1" target="7oIZ4ZT-HJo-2TDTiQin-1" edge="1">
          <mxGeometry width="50" height="50" relative="1" as="geometry">
            <mxPoint x="310" y="410" as="sourcePoint" />
            <mxPoint x="378" y="500" as="targetPoint" />
          </mxGeometry>
        </mxCell>
        <mxCell id="7oIZ4ZT-HJo-2TDTiQin-10" value="ontology:hasCapacity" style="edgeLabel;html=1;align=center;verticalAlign=middle;resizable=0;points=[];" parent="7oIZ4ZT-HJo-2TDTiQin-9" vertex="1" connectable="0">
          <mxGeometry x="-0.1368" relative="1" as="geometry">
            <mxPoint x="18" y="1" as="offset" />
          </mxGeometry>
        </mxCell>
        <mxCell id="bPEBmuKVepisSB2qxDbt-1" value="Travel:489978239_1718_2022-01-01T00:18:37" style="rounded=0;whiteSpace=wrap;html=1;snapToPoint=1;points=[[0.1,0],[0.2,0],[0.3,0],[0.4,0],[0.5,0],[0.6,0],[0.7,0],[0.8,0],[0.9,0],[0,0.1],[0,0.3],[0,0.5],[0,0.7],[0,0.9],[0.1,1],[0.2,1],[0.3,1],[0.4,1],[0.5,1],[0.6,1],[0.7,1],[0.8,1],[0.9,1],[1,0.1],[1,0.3],[1,0.5],[1,0.7],[1,0.9]];fillColor=#6d8764;fontColor=#ffffff;strokeColor=#3A5431;" parent="1" vertex="1">
          <mxGeometry x="170" y="220" width="260" height="30" as="geometry" />
        </mxCell>
        <mxCell id="B1bugiizTGHnAiHjWMVY-1" value="16.28" style="rounded=0;whiteSpace=wrap;html=1;snapToPoint=1;points=[[0.1,0],[0.2,0],[0.3,0],[0.4,0],[0.5,0],[0.6,0],[0.7,0],[0.8,0],[0.9,0],[0,0.1],[0,0.3],[0,0.5],[0,0.7],[0,0.9],[0.1,1],[0.2,1],[0.3,1],[0.4,1],[0.5,1],[0.6,1],[0.7,1],[0.8,1],[0.9,1],[1,0.1],[1,0.3],[1,0.5],[1,0.7],[1,0.9]];" parent="1" vertex="1">
          <mxGeometry x="70" y="40.00000000000023" width="120" height="30" as="geometry" />
        </mxCell>
        <mxCell id="B1bugiizTGHnAiHjWMVY-2" value="2022-01-01T00:02:20" style="rounded=0;whiteSpace=wrap;html=1;snapToPoint=1;points=[[0.1,0],[0.2,0],[0.3,0],[0.4,0],[0.5,0],[0.6,0],[0.7,0],[0.8,0],[0.9,0],[0,0.1],[0,0.3],[0,0.5],[0,0.7],[0,0.9],[0.1,1],[0.2,1],[0.3,1],[0.4,1],[0.5,1],[0.6,1],[0.7,1],[0.8,1],[0.9,1],[1,0.1],[1,0.3],[1,0.5],[1,0.7],[1,0.9]];" parent="1" vertex="1">
          <mxGeometry x="230" y="40.00000000000023" width="120" height="30" as="geometry" />
        </mxCell>
        <mxCell id="AJqgXMZ6HvCY272QIxKM-1" value="2022-01-01T00:18:37" style="rounded=0;whiteSpace=wrap;html=1;snapToPoint=1;points=[[0.1,0],[0.2,0],[0.3,0],[0.4,0],[0.5,0],[0.6,0],[0.7,0],[0.8,0],[0.9,0],[0,0.1],[0,0.3],[0,0.5],[0,0.7],[0,0.9],[0.1,1],[0.2,1],[0.3,1],[0.4,1],[0.5,1],[0.6,1],[0.7,1],[0.8,1],[0.9,1],[1,0.1],[1,0.3],[1,0.5],[1,0.7],[1,0.9]];" parent="1" vertex="1">
          <mxGeometry x="380" y="40" width="120" height="30" as="geometry" />
        </mxCell>
        <mxCell id="AJqgXMZ6HvCY272QIxKM-2" value="" style="endArrow=classic;html=1;exitX=0.169;exitY=-0.133;exitDx=0;exitDy=0;entryX=0.5;entryY=1;entryDx=0;entryDy=0;endSize=8;arcSize=0;rounded=0;exitPerimeter=0;" parent="1" source="bPEBmuKVepisSB2qxDbt-1" target="B1bugiizTGHnAiHjWMVY-1" edge="1">
          <mxGeometry width="50" height="50" relative="1" as="geometry">
            <mxPoint x="170" y="120" as="sourcePoint" />
            <mxPoint x="460" y="120" as="targetPoint" />
          </mxGeometry>
        </mxCell>
        <mxCell id="AJqgXMZ6HvCY272QIxKM-3" value="ontology:hasDuration" style="edgeLabel;html=1;align=center;verticalAlign=middle;resizable=0;points=[];" parent="AJqgXMZ6HvCY272QIxKM-2" vertex="1" connectable="0">
          <mxGeometry x="-0.1368" relative="1" as="geometry">
            <mxPoint as="offset" />
          </mxGeometry>
        </mxCell>
        <mxCell id="AJqgXMZ6HvCY272QIxKM-4" value="" style="endArrow=classic;html=1;exitX=0.458;exitY=0.067;exitDx=0;exitDy=0;entryX=0.5;entryY=1;entryDx=0;entryDy=0;endSize=8;arcSize=0;rounded=0;exitPerimeter=0;" parent="1" source="bPEBmuKVepisSB2qxDbt-1" target="B1bugiizTGHnAiHjWMVY-2" edge="1">
          <mxGeometry width="50" height="50" relative="1" as="geometry">
            <mxPoint x="264" y="206" as="sourcePoint" />
            <mxPoint x="220" y="110" as="targetPoint" />
          </mxGeometry>
        </mxCell>
        <mxCell id="AJqgXMZ6HvCY272QIxKM-5" value="ontology:hasUnLockDate" style="edgeLabel;html=1;align=center;verticalAlign=middle;resizable=0;points=[];" parent="AJqgXMZ6HvCY272QIxKM-4" vertex="1" connectable="0">
          <mxGeometry x="-0.1368" relative="1" as="geometry">
            <mxPoint x="-9" y="-8" as="offset" />
          </mxGeometry>
        </mxCell>
        <mxCell id="AJqgXMZ6HvCY272QIxKM-6" value="" style="endArrow=classic;html=1;exitX=0.7;exitY=0;exitDx=0;exitDy=0;entryX=0.5;entryY=1;entryDx=0;entryDy=0;endSize=8;arcSize=0;rounded=0;" parent="1" source="bPEBmuKVepisSB2qxDbt-1" target="AJqgXMZ6HvCY272QIxKM-1" edge="1">
          <mxGeometry width="50" height="50" relative="1" as="geometry">
            <mxPoint x="310" y="180" as="sourcePoint" />
            <mxPoint x="392" y="80" as="targetPoint" />
          </mxGeometry>
        </mxCell>
        <mxCell id="AJqgXMZ6HvCY272QIxKM-7" value="ontology:hasLockDate" style="edgeLabel;html=1;align=center;verticalAlign=middle;resizable=0;points=[];" parent="AJqgXMZ6HvCY272QIxKM-6" vertex="1" connectable="0">
          <mxGeometry x="-0.1368" relative="1" as="geometry">
            <mxPoint x="-3" y="-7" as="offset" />
          </mxGeometry>
        </mxCell>
        <mxCell id="AJqgXMZ6HvCY272QIxKM-8" value="" style="endArrow=classic;html=1;exitX=0.438;exitY=1.067;exitDx=0;exitDy=0;entryX=0.7;entryY=0;entryDx=0;entryDy=0;endSize=8;arcSize=0;rounded=0;exitPerimeter=0;" parent="1" source="bPEBmuKVepisSB2qxDbt-1" target="4ycTnDVCzbSpGlADL72A-1" edge="1">
          <mxGeometry width="50" height="50" relative="1" as="geometry">
            <mxPoint x="630" y="240" as="sourcePoint" />
            <mxPoint x="702" y="140" as="targetPoint" />
          </mxGeometry>
        </mxCell>
        <mxCell id="AJqgXMZ6HvCY272QIxKM-9" value="ontology:hasUnLockStation" style="edgeLabel;html=1;align=center;verticalAlign=middle;resizable=0;points=[];" parent="AJqgXMZ6HvCY272QIxKM-8" vertex="1" connectable="0">
          <mxGeometry x="-0.1368" relative="1" as="geometry">
            <mxPoint x="-14" y="13" as="offset" />
          </mxGeometry>
        </mxCell>
        <mxCell id="AJqgXMZ6HvCY272QIxKM-10" value="Station:10 - MarquÃ©s de la Ensenada" style="rounded=0;whiteSpace=wrap;html=1;snapToPoint=1;points=[[0.1,0],[0.2,0],[0.3,0],[0.4,0],[0.5,0],[0.6,0],[0.7,0],[0.8,0],[0.9,0],[0,0.1],[0,0.3],[0,0.5],[0,0.7],[0,0.9],[0.1,1],[0.2,1],[0.3,1],[0.4,1],[0.5,1],[0.6,1],[0.7,1],[0.8,1],[0.9,1],[1,0.1],[1,0.3],[1,0.5],[1,0.7],[1,0.9]];fillColor=#647687;strokeColor=#314354;fontColor=#ffffff;" parent="1" vertex="1">
          <mxGeometry x="500" y="210" width="220" height="30" as="geometry" />
        </mxCell>
        <mxCell id="AJqgXMZ6HvCY272QIxKM-11" value="" style="endArrow=classic;html=1;exitX=1;exitY=0.5;exitDx=0;exitDy=0;endSize=8;arcSize=0;rounded=0;" parent="1" source="bPEBmuKVepisSB2qxDbt-1" target="AJqgXMZ6HvCY272QIxKM-10" edge="1">
          <mxGeometry width="50" height="50" relative="1" as="geometry">
            <mxPoint x="688" y="240" as="sourcePoint" />
            <mxPoint x="590" y="215" as="targetPoint" />
          </mxGeometry>
        </mxCell>
        <mxCell id="AJqgXMZ6HvCY272QIxKM-12" value="ontology:hasLockStation" style="edgeLabel;html=1;align=center;verticalAlign=middle;resizable=0;points=[];" parent="AJqgXMZ6HvCY272QIxKM-11" vertex="1" connectable="0">
          <mxGeometry x="-0.1368" relative="1" as="geometry">
            <mxPoint x="-14" y="13" as="offset" />
          </mxGeometry>
        </mxCell>
        <mxCell id="AJqgXMZ6HvCY272QIxKM-13" value="Bicycle:1718" style="rounded=0;whiteSpace=wrap;html=1;snapToPoint=1;points=[[0.1,0],[0.2,0],[0.3,0],[0.4,0],[0.5,0],[0.6,0],[0.7,0],[0.8,0],[0.9,0],[0,0.1],[0,0.3],[0,0.5],[0,0.7],[0,0.9],[0.1,1],[0.2,1],[0.3,1],[0.4,1],[0.5,1],[0.6,1],[0.7,1],[0.8,1],[0.9,1],[1,0.1],[1,0.3],[1,0.5],[1,0.7],[1,0.9]];fillColor=#e51400;fontColor=#ffffff;strokeColor=#B20000;" parent="1" vertex="1">
          <mxGeometry y="170.00000000000023" width="120" height="30" as="geometry" />
        </mxCell>
        <mxCell id="AJqgXMZ6HvCY272QIxKM-16" value="" style="endArrow=classic;html=1;entryX=1;entryY=0.5;entryDx=0;entryDy=0;endSize=8;arcSize=0;rounded=0;exitX=0;exitY=0.5;exitDx=0;exitDy=0;" parent="1" source="bPEBmuKVepisSB2qxDbt-1" target="AJqgXMZ6HvCY272QIxKM-13" edge="1">
          <mxGeometry width="50" height="50" relative="1" as="geometry">
            <mxPoint x="170" y="175" as="sourcePoint" />
            <mxPoint x="150" y="80" as="targetPoint" />
          </mxGeometry>
        </mxCell>
        <mxCell id="AJqgXMZ6HvCY272QIxKM-17" value="ontology:hasBike" style="edgeLabel;html=1;align=center;verticalAlign=middle;resizable=0;points=[];" parent="AJqgXMZ6HvCY272QIxKM-16" vertex="1" connectable="0">
          <mxGeometry x="-0.1368" relative="1" as="geometry">
            <mxPoint as="offset" />
          </mxGeometry>
        </mxCell>
      </root>
    </mxGraphModel>
  </diagram>
</mxfile>
